<svg width="350" height="80" viewBox="0 0 350 80" fill="none" xmlns="http://www.w3.org/2000/svg">
<g clip-path="url(#clip0_7571_1477)">
<path d="M145.437 20.1035C149.095 20.3747 152.109 22.9008 152.407 26.6237C152.58 28.7872 152.612 32.9846 152.389 35.1128C152.198 36.9227 151.078 38.5173 149.622 39.5578C150.643 40.2829 151.516 41.1938 151.981 42.3728C152.055 42.5644 152.407 43.6432 152.407 43.7493V58.8942H146.593V42.252H136.299V58.8942H130.484V20.1035H145.443H145.437ZM146.587 25.6097H136.293V36.8637H146.587V25.6097Z" fill="white"/>
<path d="M122.922 58.7762H117.108V46.1457L116.927 45.9659H106.814V58.7762H101V26.149C101 23.3635 104.3 20.687 106.907 20.2537C109.149 19.8823 116.426 19.8588 118.44 20.6428C120.48 21.4357 122.922 24.1387 122.922 26.3877V58.7762ZM117.108 25.6096H106.814V40.5776H116.927L117.108 40.3978V25.6096Z" fill="white"/>
<path d="M205.205 20.1392C207.427 19.9653 210.695 19.9624 212.926 20.098C216.822 20.3397 219.729 22.6948 220.134 26.624L220.113 52.7164C219.523 56.4864 216.706 58.6735 212.926 58.9034C210.766 59.0331 207.689 59.0331 205.527 58.9034C201.464 58.6588 198.471 56.1474 198.2 52.0207C197.663 43.8853 198.617 35.181 198.2 26.9836C198.527 23.022 201.22 20.4517 205.205 20.1392ZM214.314 25.61H204.139V53.3884H214.314V25.61Z" fill="white"/>
<path d="M249.001 58.7763H243.186V25.6097H232.892V58.7763H227.078V20.1035H242.037C245.072 20.1035 249.001 23.1366 249.001 26.2699V58.7763Z" fill="white"/>
<path d="M163.593 20.2207V41.9535C163.593 43.9579 166.053 48.4855 167.084 50.3543C167.307 50.761 168.54 53.0572 168.74 53.1457C170.84 49.2076 173.538 45.3345 173.887 40.7538V20.2207H179.701L179.707 41.3581C179.004 47.7957 174.596 53.069 171.891 58.7756L165.707 58.9024L165.517 58.8198C163.756 55.1206 161.38 51.5893 159.628 47.9048C158.565 45.6705 157.826 43.3625 157.65 40.8806L157.656 20.2207H163.593Z" fill="white"/>
<path d="M191.376 20.2207V58.7167L191.194 58.8965H185.621L185.439 58.7167V20.2207H191.376Z" fill="white"/>
</g>
<defs>
<clipPath id="clip0_7571_1477">
<rect width="148" height="39" fill="white" transform="translate(101 20)"/>
</clipPath>
</defs>
</svg>
